<?xml version="1.0" encoding="UTF-8" standalone="no"?>
<!-- Created with Inkscape (http://www.inkscape.org/) -->

<svg
   xmlns:dc="http://purl.org/dc/elements/1.1/"
   xmlns:cc="http://creativecommons.org/ns#"
   xmlns:rdf="http://www.w3.org/1999/02/22-rdf-syntax-ns#"
   xmlns:svg="http://www.w3.org/2000/svg"
   xmlns="http://www.w3.org/2000/svg"
   xmlns:sodipodi="http://sodipodi.sourceforge.net/DTD/sodipodi-0.dtd"
   xmlns:inkscape="http://www.inkscape.org/namespaces/inkscape"
   width="45"
   height="45"
   viewBox="0 0 11.90625 11.90625"
   version="1.1"
   id="svg8"
   inkscape:version="0.92.4 (f8dce91, 2019-08-02)"
   sodipodi:docname="bishop_b.svg">
  <defs
     id="defs2">
    <marker
       inkscape:stockid="Arrow1Lstart"
       orient="auto"
       refY="0"
       refX="0"
       id="Arrow1Lstart"
       style="overflow:visible"
       inkscape:isstock="true">
      <path
         id="path823"
         d="M 0,0 5,-5 -12.5,0 5,5 Z"
         style="fill:#000000;fill-opacity:1;fill-rule:evenodd;stroke:none;stroke-width:1.00000003pt;stroke-opacity:1"
         transform="matrix(0.8,0,0,0.8,10,0)"
         inkscape:connector-curvature="0" />
    </marker>
    <inkscape:path-effect
       effect="skeletal"
       id="path-effect981"
       is_visible="true"
       pattern="M 0,5 C 0,2.24 2.24,0 5,0 7.76,0 10,2.24 10,5 10,7.76 7.76,10 5,10 2.24,10 0,7.76 0,5 Z"
       copytype="single_stretched"
       prop_scale="0.26458333"
       scale_y_rel="false"
       spacing="0"
       normal_offset="0"
       tang_offset="0"
       prop_units="false"
       vertical_pattern="false"
       fuse_tolerance="0" />
  </defs>
  <sodipodi:namedview
     id="base"
     pagecolor="#ffffff"
     bordercolor="#666666"
     borderopacity="1.0"
     inkscape:pageopacity="0.0"
     inkscape:pageshadow="2"
     inkscape:zoom="16"
     inkscape:cx="-15.209003"
     inkscape:cy="21.28494"
     inkscape:document-units="mm"
     inkscape:current-layer="svg8"
     showgrid="false"
     inkscape:window-width="1853"
     inkscape:window-height="1018"
     inkscape:window-x="67"
     inkscape:window-y="34"
     inkscape:window-maximized="1"
     width="45mm"
     showguides="false"
     units="px" />
  <metadata
     id="metadata5">
    <rdf:RDF>
      <cc:Work
         rdf:about="">
        <dc:format>image/svg+xml</dc:format>
        <dc:type
           rdf:resource="http://purl.org/dc/dcmitype/StillImage" />
        <dc:title />
      </cc:Work>
    </rdf:RDF>
  </metadata>
  <path
     style="display:inline;fill:#000000;fill-opacity:1;stroke:#000000;stroke-width:0.52916667;stroke-miterlimit:4;stroke-dasharray:none;stroke-opacity:1;paint-order:stroke markers fill"
     d="m 6.2023871,1.6682356 c 0.1742344,0.019517 0.2859045,0.056868 0.3255951,0.1099989 0.011436,0.014929 0.01412,0.026161 0.01345,0.056038 -0.00129,0.06517 -0.026908,0.090905 -0.1325253,0.1336599 -0.037673,0.014956 -0.076016,0.031132 -0.084093,0.036111 -0.026238,0.014122 -0.043055,0.039019 -0.043055,0.061848 0.1012978,0.1693087 0.2244935,0.2257868 0.3578855,0.3681866 0.069226,0.108893 -1.1348865,1.1661789 -0.7657524,1.3185968 0,0 0.2180722,0.3966502 0.5292745,0.1547614 0.3072859,-0.2993117 0.7287977,-0.7494611 0.86191,-0.810896 0.1616366,-0.1239683 0.2970838,0.1428774 0.4206406,0.4229955 0.045069,0.1058455 0.047093,0.117469 0.047093,0.244902 -6.632e-4,0.1623002 -0.020855,0.2548654 -0.077359,0.3565601 -0.075344,0.1344887 -0.1782694,0.2449047 -0.3087774,0.332488 -0.074673,0.04981 -0.094853,0.070563 -0.094853,0.09713 0,0.025743 0.017488,0.044415 0.057185,0.062679 0.024214,0.011203 0.039015,0.021573 0.046421,0.033623 0.017488,0.026968 0.020855,0.053961 0.00874,0.068904 -0.017488,0.020352 -0.067949,0.045245 -0.1035983,0.050642 -0.1217619,0.018683 -0.1560699,0.031132 -0.1701977,0.061848 -0.010764,0.024075 -0.020855,0.1979964 -0.018832,0.3308252 l 0.00202,0.1203768 0.1311795,0.00748 c 0.1971055,0.010785 0.3121397,0.031962 0.3861393,0.070566 l 0.026238,0.013704 -0.017488,0.022825 c -0.0222,0.029058 -0.02758,0.048151 -0.018832,0.068904 0.016826,0.03819 0.057856,0.055206 0.2367953,0.098793 0.2300684,0.056451 0.3424128,0.098376 0.3424128,0.1282612 0,0.04068 -0.2172875,0.1075081 -0.5005011,0.1539993 -0.1829786,0.029885 -0.328285,0.046075 -0.6458066,0.072225 -0.110326,0.00911 -0.2024883,0.017848 -0.2045057,0.0191 -0.018841,0.011621 -0.028252,0.2793552 -0.014803,0.417166 0.061214,0.6151593 0.3242493,1.4320572 0.5583546,1.7342424 0.072649,0.092979 0.1103251,0.1174688 0.2825401,0.1818078 0.1594344,0.059357 0.1735602,0.065999 0.1789429,0.083019 0.00942,0.03196 -0.00129,0.093394 -0.023542,0.1319975 -0.039015,0.068904 -0.040368,0.1124897 -0.00469,0.1618832 0.049779,0.068907 0.1379061,0.1295095 0.7097151,0.483996 0.2892679,0.1793172 0.4224657,0.266072 0.4554294,0.296789 0.026234,0.02449 0.045072,0.064752 0.039018,0.083844 -0.00535,0.017016 -0.038343,0.04898 -0.1062889,0.1025258 -0.081399,0.064339 -0.098216,0.09132 -0.076016,0.1241129 0.015474,0.022413 0.042383,0.038185 0.1163789,0.069316 0.088795,0.037362 0.095526,0.044827 0.1042713,0.1174716 0.012109,0.1033575 0.00342,0.2859975 -0.016148,0.3266745 l -0.00876,0.01868 -0.063235,0.0028 c -0.3303027,0.01496 -5.8849194,0.01453 -5.9905359,-2.77e-4 -0.018169,-0.0024 -0.037,-0.0071 -0.041711,-0.0099 -0.020185,-0.01246 -0.030276,-0.06227 -0.033634,-0.166034 -0.00405,-0.1124901 0.00405,-0.1826383 0.025566,-0.2253942 0.014803,-0.029886 0.029594,-0.038608 0.1116719,-0.068904 0.060542,-0.021984 0.084765,-0.036529 0.098888,-0.05811 0.026909,-0.039017 0.00534,-0.074302 -0.086108,-0.1440342 -0.055161,-0.041926 -0.098217,-0.086754 -0.098217,-0.1025258 0,-0.013283 0.029594,-0.048147 0.067267,-0.078455 C 3.0568021,9.3665474 3.1785612,9.2856065 3.4846468,9.0930061 4.040984,8.7426702 4.1136366,8.6920287 4.148618,8.6301805 4.1667875,8.5973895 4.1647633,8.5504845 4.1425507,8.5048243 4.1189997,8.4570873 4.1102599,8.4226375 4.1102599,8.3773918 v -0.036115 l 0.024214,-0.012038 c 0.012779,-0.00665 0.057185,-0.024077 0.097544,-0.038605 C 4.4311363,8.2192886 4.4876447,8.191477 4.5313712,8.1429121 4.6719692,7.9876702 4.8643655,7.5551473 4.9773815,7.1383957 5.0076573,7.0259086 5.0587793,6.8042508 5.0789622,6.6959117 5.1273981,6.4348216 5.1422002,6.0359207 5.1051995,5.9761466 5.0937644,5.957464 5.064841,5.94211 5.0285118,5.9354688 5.0103427,5.931743 4.9168409,5.9225958 4.8213153,5.9147302 4.4910118,5.8869189 4.2616157,5.8541253 4.0328922,5.8018234 3.8660587,5.7636359 3.7537153,5.7229582 3.7328609,5.6922414 c -0.0081,-0.012873 -0.00736,-0.013704 0.012779,-0.024076 0.039687,-0.020765 0.1331979,-0.052302 0.2435239,-0.082187 0.2428505,-0.066 0.2778318,-0.079283 0.306758,-0.1158101 0.020185,-0.025743 0.019512,-0.046491 -0.00405,-0.079282 l -0.013448,-0.018265 0.018841,-0.010785 c 0.049779,-0.02864 0.1903779,-0.060603 0.3074305,-0.07015 0.1015809,-0.00831 0.1372347,-0.014956 0.162125,-0.031547 0.039015,-0.025743 0.039015,-0.025326 0.034314,-0.2100339 -0.00266,-0.092979 -0.00736,-0.1809797 -0.011436,-0.1959225 -0.012106,-0.043169 -0.02758,-0.056451 -0.09149,-0.075132 -0.030276,-0.00874 -0.061895,-0.016181 -0.071305,-0.016181 -0.043055,0 -0.1130169,-0.044414 -0.1130169,-0.072225 0,-0.014956 0.026238,-0.04566 0.063909,-0.073054 0.057856,-0.043169 0.069963,-0.072227 0.043055,-0.1066795 -0.0081,-0.01037 -0.026911,-0.02366 -0.045742,-0.031962 C 4.4641113,4.428307 4.3127496,4.2888366 4.2360602,4.1651405 4.1714792,4.0613687 4.1526477,3.9924645 4.1438989,3.8289186 c -0.00942,-0.1784883 0,-0.226225 0.06862,-0.3565627 C 4.3598433,3.1921723 4.6652565,2.8883274 5.2141925,2.4757263 5.4119539,2.3267121 5.5794599,2.1859964 5.6104054,2.141996 c 0.028923,-0.039849 0.02287,-0.084678 -0.015474,-0.1199598 -0.012106,-0.011204 -0.043055,-0.030716 -0.069291,-0.043999 -0.062557,-0.030717 -0.1009065,-0.058529 -0.11167,-0.080528 -0.00534,-0.010785 -0.00874,-0.041509 -0.00874,-0.080528 0,-0.056868 0.00129,-0.063925 0.01412,-0.0743 0.040359,-0.033622 0.2024873,-0.066417 0.4063205,-0.082187 0.058528,-0.00414 0.3148307,8.291e-4 0.3767208,0.00789 z"
     id="path4944"
     inkscape:connector-curvature="0"
     sodipodi:nodetypes="ccccccccccccccscccccccccccccsccccccccccccccccccccccccccsccccsccccccccccccccccccccccsscccccccccccscccc" />
</svg>
