<?xml version="1.0" encoding="UTF-8" standalone="no"?>
<!-- Created with Inkscape (http://www.inkscape.org/) -->

<svg
   xmlns:dc="http://purl.org/dc/elements/1.1/"
   xmlns:cc="http://creativecommons.org/ns#"
   xmlns:rdf="http://www.w3.org/1999/02/22-rdf-syntax-ns#"
   xmlns:svg="http://www.w3.org/2000/svg"
   xmlns="http://www.w3.org/2000/svg"
   xmlns:sodipodi="http://sodipodi.sourceforge.net/DTD/sodipodi-0.dtd"
   xmlns:inkscape="http://www.inkscape.org/namespaces/inkscape"
   width="45"
   height="45"
   viewBox="0 0 11.90625 11.90625"
   version="1.1"
   id="svg8"
   inkscape:version="0.92.4 (f8dce91, 2019-08-02)"
   sodipodi:docname="bishop_w.svg">
  <defs
     id="defs2">
    <marker
       inkscape:stockid="Arrow1Lstart"
       orient="auto"
       refY="0"
       refX="0"
       id="Arrow1Lstart"
       style="overflow:visible"
       inkscape:isstock="true">
      <path
         id="path823"
         d="M 0,0 5,-5 -12.5,0 5,5 Z"
         style="fill:#000000;fill-opacity:1;fill-rule:evenodd;stroke:none;stroke-width:1.00000003pt;stroke-opacity:1"
         transform="matrix(0.8,0,0,0.8,10,0)"
         inkscape:connector-curvature="0" />
    </marker>
    <inkscape:path-effect
       effect="skeletal"
       id="path-effect981"
       is_visible="true"
       pattern="M 0,5 C 0,2.24 2.24,0 5,0 7.76,0 10,2.24 10,5 10,7.76 7.76,10 5,10 2.24,10 0,7.76 0,5 Z"
       copytype="single_stretched"
       prop_scale="0.26458333"
       scale_y_rel="false"
       spacing="0"
       normal_offset="0"
       tang_offset="0"
       prop_units="false"
       vertical_pattern="false"
       fuse_tolerance="0" />
  </defs>
  <sodipodi:namedview
     id="base"
     pagecolor="#ffffff"
     bordercolor="#666666"
     borderopacity="1.0"
     inkscape:pageopacity="0.0"
     inkscape:pageshadow="2"
     inkscape:zoom="16"
     inkscape:cx="-3.427753"
     inkscape:cy="21.28494"
     inkscape:document-units="mm"
     inkscape:current-layer="svg8"
     showgrid="false"
     inkscape:window-width="1853"
     inkscape:window-height="1018"
     inkscape:window-x="67"
     inkscape:window-y="34"
     inkscape:window-maximized="1"
     width="45mm"
     showguides="false"
     units="px" />
  <metadata
     id="metadata5">
    <rdf:RDF>
      <cc:Work
         rdf:about="">
        <dc:format>image/svg+xml</dc:format>
        <dc:type
           rdf:resource="http://purl.org/dc/dcmitype/StillImage" />
        <dc:title />
      </cc:Work>
    </rdf:RDF>
  </metadata>
  <path
     id="path4944-6"
     style="display:inline;fill:#ffffff;fill-opacity:1;stroke:#000000;stroke-width:0.52916667;stroke-miterlimit:4;stroke-dasharray:none;stroke-opacity:1;paint-order:stroke markers fill"
     d="m 6.1923012,1.8324539 c 0.1673264,0.018743 0.2745688,0.054613 0.3126856,0.1056376 0.010982,0.014337 0.013561,0.025124 0.012916,0.053816 -0.00125,0.062586 -0.025841,0.087301 -0.1272709,0.1283605 -0.036179,0.014363 -0.073002,0.029898 -0.080759,0.034679 -0.025199,0.013562 -0.041348,0.037472 -0.041348,0.059396 0.097281,0.1625958 0.2155926,0.2168346 0.3436958,0.3535885 0.066481,0.1045755 -1.0898899,1.1199415 -0.7353913,1.2663163 0,0 0.2094257,0.3809235 0.5082894,0.1486253 C 6.6802213,3.6954289 7.0850207,3.2631273 7.2128553,3.2041282 7.3680833,3.0850751 7.4981601,3.3413407 7.6168179,3.6103525 7.6601,3.7120014 7.6620438,3.723164 7.6620438,3.8455445 7.6614085,4.0014097 7.6420156,4.0903049 7.5877519,4.1879674 7.5153952,4.3171239 7.4165508,4.4231621 7.2912173,4.5072728 c -0.071712,0.047835 -0.091092,0.067765 -0.091092,0.093279 0,0.024723 0.016796,0.042654 0.054918,0.060194 0.023255,0.010759 0.037468,0.020719 0.044581,0.03229 0.016796,0.025899 0.020027,0.051821 0.00839,0.066172 -0.016796,0.019545 -0.065255,0.043451 -0.099491,0.048634 -0.1169341,0.017941 -0.1498818,0.029898 -0.1634497,0.059396 -0.010336,0.023119 -0.020027,0.1901461 -0.018086,0.3177085 l 0.00193,0.1156041 0.1259783,0.00718 c 0.1892907,0.010357 0.2997639,0.030695 0.3708296,0.067768 l 0.025199,0.01316 -0.016796,0.021921 c -0.021321,0.027906 -0.026487,0.046242 -0.018086,0.066172 0.016158,0.036676 0.055562,0.053017 0.2274069,0.094876 0.2209466,0.054213 0.3288365,0.094475 0.3288365,0.1231759 0,0.039067 -0.2086723,0.1032456 -0.4806568,0.1478936 -0.1757238,0.0287 -0.3152691,0.044248 -0.6202013,0.069361 -0.1059517,0.00875 -0.1944599,0.017141 -0.1963973,0.018343 -0.018094,0.011159 -0.027132,0.2682792 -0.014216,0.4006261 0.058787,0.590769 0.3113933,1.3752779 0.5362165,1.6654821 0.069769,0.089292 0.1059509,0.1128112 0.2713378,0.1745993 0.1531131,0.057004 0.1666789,0.063382 0.1718482,0.079727 0.00905,0.030693 -0.00125,0.089691 -0.022609,0.1267639 -0.037468,0.066172 -0.038768,0.1080297 -0.0045,0.1554647 0.047805,0.066175 0.1324383,0.1243747 0.6815758,0.4648062 0.2777988,0.1722077 0.4057156,0.2555227 0.4373723,0.2850217 0.025194,0.023519 0.043285,0.062185 0.037471,0.08052 -0.00514,0.01634 -0.036823,0.047038 -0.1020747,0.098461 -0.078172,0.061787 -0.094322,0.087699 -0.073002,0.1191915 0.014861,0.02152 0.040703,0.03668 0.1117648,0.06657 0.085274,0.03588 0.091739,0.04305 0.100137,0.112813 0.01163,0.09926 0.00328,0.2746596 -0.015508,0.3137236 l -0.00841,0.01794 -0.060728,0.0027 c -0.3172066,0.01437 -5.6515905,0.01395 -5.7530195,-2.54e-4 -0.017449,-0.0023 -0.035533,-0.0068 -0.040057,-0.0095 -0.019385,-0.01197 -0.029076,-0.0598 -0.0323,-0.1594526 -0.00389,-0.10803 0.00389,-0.175397 0.024552,-0.216458 0.014216,-0.02871 0.028421,-0.03708 0.1072443,-0.06617 0.058142,-0.02111 0.081404,-0.03508 0.094967,-0.05581 0.025842,-0.03747 0.00513,-0.07136 -0.082694,-0.1383229 -0.052974,-0.040264 -0.094323,-0.083314 -0.094323,-0.098461 0,-0.012755 0.028421,-0.046238 0.0646,-0.075344 C 3.1714213,9.2255645 3.2883529,9.1478324 3.5823026,8.9628683 4.1165817,8.6264228 4.1863537,8.5777891 4.2199483,8.518393 4.2373973,8.486902 4.2354533,8.441857 4.2141183,8.3980071 4.1915013,8.3521631 4.1831073,8.3190791 4.1831073,8.2756271 v -0.034683 l 0.023254,-0.011562 c 0.012272,-0.00639 0.054918,-0.023122 0.093677,-0.037074 C 4.4912621,8.1237921 4.54553,8.0970831 4.5875228,8.050444 4.7225463,7.9013569 4.9073144,7.485983 5.0158494,7.0857551 5.0449254,6.977728 5.0940204,6.7648586 5.1134024,6.6608151 5.1599324,6.4100675 5.1741474,6.0269825 5.1386144,5.9695786 5.1276324,5.9516366 5.0998564,5.9368916 5.0649674,5.9305136 5.0475184,5.9269336 4.9577241,5.9181506 4.8659859,5.9105966 4.5487785,5.8838886 4.3284777,5.8523946 4.1088227,5.8021662 3.9486039,5.7654922 3.8407148,5.7264282 3.8206873,5.696929 3.8129073,5.684567 3.8136173,5.683769 3.8329593,5.673807 3.8710733,5.653865 3.9608761,5.623579 4.0668278,5.594879 4.3000496,5.531496 4.333644,5.518739 4.3614233,5.4836607 c 0.019385,-0.024723 0.018738,-0.044648 -0.00389,-0.076139 l -0.012915,-0.01754 0.018094,-0.010357 c 0.047805,-0.027505 0.1828297,-0.0582 0.2952414,-0.067369 0.097553,-0.00798 0.1317935,-0.014364 0.155697,-0.030296 0.037468,-0.024723 0.037468,-0.024322 0.032954,-0.2017063 -0.00255,-0.089292 -0.00707,-0.1738041 -0.010983,-0.1881544 -0.011626,-0.041457 -0.026486,-0.054213 -0.087862,-0.072153 -0.029076,-0.00839 -0.059441,-0.01554 -0.068478,-0.01554 -0.041348,0 -0.1085359,-0.042653 -0.1085359,-0.069361 0,-0.014364 0.025198,-0.04385 0.061375,-0.070157 C 4.6876828,4.623432 4.6993098,4.595526 4.6734688,4.562439 4.6656888,4.552479 4.6476248,4.539717 4.6295408,4.531744 4.5229445,4.48311 4.3775841,4.349169 4.3039353,4.2303772 4.2419143,4.1307202 4.2238293,4.0645476 4.2154283,3.9074861 c -0.00905,-0.1714115 0,-0.2172555 0.065899,-0.3424255 C 4.4228105,3.2959859 4.7161144,3.004188 5.2432859,2.607946 5.4332064,2.46484 5.5940709,2.3297034 5.6237896,2.2874476 5.6515656,2.2491786 5.6457526,2.2061266 5.6089296,2.172244 5.5973036,2.161484 5.5675816,2.142746 5.5423856,2.12999 5.4823086,2.100491 5.4454796,2.073782 5.4351432,2.052655 5.4300132,2.042298 5.4267532,2.012792 5.4267532,1.97532 c 0,-0.054613 0.00125,-0.06139 0.013561,-0.071354 0.038759,-0.032289 0.1944589,-0.063784 0.3902106,-0.078928 0.056207,-0.00398 0.3023481,7.952e-4 0.3617842,0.00758 z m 0.010086,-0.1642183 c 0.1742344,0.019517 0.2859045,0.056868 0.3255951,0.1099989 0.011436,0.014929 0.01412,0.026161 0.01345,0.056038 -0.00129,0.06517 -0.026908,0.090905 -0.1325253,0.1336599 -0.037673,0.014956 -0.076016,0.031132 -0.084093,0.036111 -0.026238,0.014122 -0.043055,0.039019 -0.043055,0.061848 0.1012978,0.1693087 0.2244935,0.2257868 0.3578855,0.3681866 0.069226,0.108893 -1.1348865,1.1661789 -0.7657524,1.3185968 0,0 0.2180722,0.3966502 0.5292745,0.1547614 0.3072859,-0.2993117 0.7287977,-0.7494611 0.86191,-0.810896 0.1616366,-0.1239683 0.2970838,0.1428774 0.4206406,0.4229955 0.045069,0.1058455 0.047093,0.117469 0.047093,0.244902 -6.632e-4,0.1623002 -0.020855,0.2548654 -0.077359,0.3565601 -0.075344,0.1344887 -0.1782694,0.2449047 -0.3087774,0.332488 -0.074673,0.04981 -0.094853,0.070563 -0.094853,0.09713 0,0.025743 0.017488,0.044415 0.057185,0.062679 0.024214,0.011203 0.039015,0.021573 0.046421,0.033623 0.017488,0.026968 0.020855,0.053961 0.00874,0.068904 -0.017488,0.020352 -0.067949,0.045245 -0.1035983,0.050642 -0.1217619,0.018683 -0.1560699,0.031132 -0.1701977,0.061848 -0.010764,0.024075 -0.020855,0.1979964 -0.018832,0.3308252 l 0.00202,0.1203768 0.1311795,0.00748 c 0.1971055,0.010785 0.3121397,0.031962 0.3861393,0.070566 l 0.026238,0.013704 -0.017488,0.022825 c -0.0222,0.029058 -0.02758,0.048151 -0.018832,0.068904 0.016826,0.03819 0.057856,0.055206 0.2367953,0.098793 0.2300684,0.056451 0.3424128,0.098376 0.3424128,0.1282612 0,0.04068 -0.2172875,0.1075081 -0.5005011,0.1539993 -0.1829786,0.029885 -0.328285,0.046075 -0.6458066,0.072225 -0.110326,0.00911 -0.2024883,0.017848 -0.2045057,0.0191 -0.018841,0.011621 -0.028252,0.2793552 -0.014803,0.417166 0.061214,0.6151593 0.3242493,1.4320572 0.5583546,1.7342424 0.072649,0.092979 0.1103251,0.1174688 0.2825401,0.1818078 0.1594344,0.059357 0.1735602,0.065999 0.1789429,0.083019 0.00942,0.03196 -0.00129,0.093394 -0.023542,0.1319975 -0.039015,0.068904 -0.040368,0.1124897 -0.00469,0.1618832 0.049779,0.068907 0.1379061,0.1295095 0.7097151,0.483996 0.2892679,0.1793172 0.4224657,0.266072 0.4554294,0.296789 0.026234,0.02449 0.045072,0.064752 0.039018,0.083844 -0.00535,0.017016 -0.038343,0.04898 -0.1062889,0.1025258 -0.081399,0.064339 -0.098216,0.09132 -0.076016,0.1241129 0.015474,0.022413 0.042383,0.038185 0.1163789,0.069316 0.088795,0.037362 0.095526,0.044827 0.1042713,0.1174716 0.012109,0.1033575 0.00342,0.2859975 -0.016148,0.3266745 l -0.00876,0.01868 -0.063235,0.0028 c -0.3303027,0.01496 -5.8849194,0.01453 -5.9905359,-2.77e-4 -0.018169,-0.0024 -0.037,-0.0071 -0.041711,-0.0099 -0.020185,-0.01246 -0.030276,-0.06227 -0.033634,-0.166034 -0.00405,-0.1124901 0.00405,-0.1826383 0.025566,-0.2253942 0.014803,-0.029886 0.029594,-0.038608 0.1116719,-0.068904 0.060542,-0.021984 0.084765,-0.036529 0.098888,-0.05811 0.026909,-0.039017 0.00534,-0.074302 -0.086108,-0.1440342 -0.055161,-0.041926 -0.098217,-0.086754 -0.098217,-0.1025258 0,-0.013283 0.029594,-0.048147 0.067267,-0.078455 C 3.0568021,9.3665474 3.1785612,9.2856065 3.4846468,9.0930061 4.040984,8.7426702 4.1136366,8.6920287 4.148618,8.6301805 4.1667875,8.5973895 4.1647633,8.5504845 4.1425507,8.5048243 4.1189997,8.4570873 4.1102599,8.4226375 4.1102599,8.3773918 v -0.036115 l 0.024214,-0.012038 c 0.012779,-0.00665 0.057185,-0.024077 0.097544,-0.038605 C 4.4311363,8.2192886 4.4876447,8.191477 4.5313712,8.1429121 4.6719692,7.9876702 4.8643655,7.5551473 4.9773815,7.1383957 5.0076573,7.0259086 5.0587793,6.8042508 5.0789622,6.6959117 5.1273981,6.4348216 5.1422002,6.0359207 5.1051995,5.9761466 5.0937644,5.957464 5.064841,5.94211 5.0285118,5.9354688 5.0103427,5.931743 4.9168409,5.9225958 4.8213153,5.9147302 4.4910118,5.8869189 4.2616157,5.8541253 4.0328922,5.8018234 3.8660587,5.7636359 3.7537153,5.7229582 3.7328609,5.6922414 c -0.0081,-0.012873 -0.00736,-0.013704 0.012779,-0.024076 0.039687,-0.020765 0.1331979,-0.052302 0.2435239,-0.082187 0.2428505,-0.066 0.2778318,-0.079283 0.306758,-0.1158101 0.020185,-0.025743 0.019512,-0.046491 -0.00405,-0.079282 l -0.013448,-0.018265 0.018841,-0.010785 c 0.049779,-0.02864 0.1903779,-0.060603 0.3074305,-0.07015 0.1015809,-0.00831 0.1372347,-0.014956 0.162125,-0.031547 0.039015,-0.025743 0.039015,-0.025326 0.034314,-0.2100339 -0.00266,-0.092979 -0.00736,-0.1809797 -0.011436,-0.1959225 -0.012106,-0.043169 -0.02758,-0.056451 -0.09149,-0.075132 -0.030276,-0.00874 -0.061895,-0.016181 -0.071305,-0.016181 -0.043055,0 -0.1130169,-0.044414 -0.1130169,-0.072225 0,-0.014956 0.026238,-0.04566 0.063909,-0.073054 0.057856,-0.043169 0.069963,-0.072227 0.043055,-0.1066795 -0.0081,-0.01037 -0.026911,-0.02366 -0.045742,-0.031962 C 4.4641113,4.428307 4.3127496,4.2888366 4.2360602,4.1651405 4.1714792,4.0613687 4.1526477,3.9924645 4.1438989,3.8289186 c -0.00942,-0.1784883 0,-0.226225 0.06862,-0.3565627 C 4.3598433,3.1921723 4.6652565,2.8883274 5.2141925,2.4757263 5.4119539,2.3267121 5.5794599,2.1859964 5.6104054,2.141996 c 0.028923,-0.039849 0.02287,-0.084678 -0.015474,-0.1199598 -0.012106,-0.011204 -0.043055,-0.030716 -0.069291,-0.043999 -0.062557,-0.030717 -0.1009065,-0.058529 -0.11167,-0.080528 -0.00534,-0.010785 -0.00874,-0.041509 -0.00874,-0.080528 0,-0.056868 0.00129,-0.063925 0.01412,-0.0743 0.040359,-0.033622 0.2024873,-0.066417 0.4063205,-0.082187 0.058528,-0.00414 0.3148307,8.291e-4 0.3767208,0.00789 z" />
</svg>
