<?xml version="1.0" encoding="UTF-8" standalone="no"?>
<!-- Created with Inkscape (http://www.inkscape.org/) -->

<svg
   xmlns:dc="http://purl.org/dc/elements/1.1/"
   xmlns:cc="http://creativecommons.org/ns#"
   xmlns:rdf="http://www.w3.org/1999/02/22-rdf-syntax-ns#"
   xmlns:svg="http://www.w3.org/2000/svg"
   xmlns="http://www.w3.org/2000/svg"
   xmlns:sodipodi="http://sodipodi.sourceforge.net/DTD/sodipodi-0.dtd"
   xmlns:inkscape="http://www.inkscape.org/namespaces/inkscape"
   width="45mm"
   height="45mm"
   viewBox="0 0 45 45"
   version="1.1"
   id="svg8"
   inkscape:version="0.92.4 (f8dce91, 2019-08-02)"
   sodipodi:docname="bishop_w.svg">
  <defs
     id="defs2">
    <marker
       inkscape:stockid="Arrow1Lstart"
       orient="auto"
       refY="0"
       refX="0"
       id="Arrow1Lstart"
       style="overflow:visible"
       inkscape:isstock="true">
      <path
         id="path823"
         d="M 0,0 5,-5 -12.5,0 5,5 Z"
         style="fill:#000000;fill-opacity:1;fill-rule:evenodd;stroke:none;stroke-width:1.00000003pt;stroke-opacity:1"
         transform="matrix(0.8,0,0,0.8,10,0)"
         inkscape:connector-curvature="0" />
    </marker>
    <inkscape:path-effect
       effect="skeletal"
       id="path-effect981"
       is_visible="true"
       pattern="M 0,5 C 0,2.24 2.24,0 5,0 7.76,0 10,2.24 10,5 10,7.76 7.76,10 5,10 2.24,10 0,7.76 0,5 Z"
       copytype="single_stretched"
       prop_scale="0.26458333"
       scale_y_rel="false"
       spacing="0"
       normal_offset="0"
       tang_offset="0"
       prop_units="false"
       vertical_pattern="false"
       fuse_tolerance="0" />
  </defs>
  <sodipodi:namedview
     id="base"
     pagecolor="#ffffff"
     bordercolor="#666666"
     borderopacity="1.0"
     inkscape:pageopacity="0.0"
     inkscape:pageshadow="2"
     inkscape:zoom="16"
     inkscape:cx="88.653312"
     inkscape:cy="122.89843"
     inkscape:document-units="mm"
     inkscape:current-layer="svg8"
     showgrid="false"
     inkscape:window-width="1853"
     inkscape:window-height="1018"
     inkscape:window-x="67"
     inkscape:window-y="34"
     inkscape:window-maximized="1"
     width="45mm"
     showguides="false" />
  <metadata
     id="metadata5">
    <rdf:RDF>
      <cc:Work
         rdf:about="">
        <dc:format>image/svg+xml</dc:format>
        <dc:type
           rdf:resource="http://purl.org/dc/dcmitype/StillImage" />
        <dc:title />
      </cc:Work>
    </rdf:RDF>
  </metadata>
  <path
     style="display:inline;fill:#ffffff;fill-opacity:1;stroke:#000000;stroke-width:2.64583333;stroke-miterlimit:4;stroke-dasharray:none;stroke-opacity:1;paint-order:stroke markers fill"
     d="m 23.659238,6.7850969 c 0.630457,0.070618 1.034532,0.205778 1.178149,0.398026 0.04137,0.05402 0.0511,0.09466 0.04868,0.2027702 -0.0048,0.2358158 -0.09737,0.328937 -0.479535,0.4836427 -0.136316,0.05412 -0.275064,0.1126468 -0.304275,0.1306634 -0.09494,0.051103 -0.155788,0.1411857 -0.155788,0.2237947 0.366542,0.6126359 0.812319,0.8169981 1.29499,1.3322657 0.2505,0.3940243 -4.106533,4.2197634 -2.770837,4.7712804 0,0 0.789084,1.43526 1.915153,0.559997 1.111897,-1.083043 2.637119,-2.711887 3.118778,-2.934186 0.584874,-0.448574 1.074986,0.516995 1.52207,1.530589 0.16309,0.382997 0.170392,0.425056 0.170392,0.886166 -0.0024,0.587276 -0.07546,0.922218 -0.279931,1.290196 -0.27263,0.486641 -0.645061,0.886176 -1.117296,1.203092 -0.270194,0.180236 -0.343219,0.255331 -0.343219,0.35146 0,0.09315 0.06329,0.160711 0.206905,0.226802 0.08763,0.04054 0.141183,0.07806 0.167961,0.121661 0.06329,0.09758 0.07546,0.195255 0.03165,0.249325 -0.06329,0.07364 -0.245853,0.163719 -0.374866,0.183245 -0.440588,0.0676 -0.564732,0.112647 -0.615851,0.223795 -0.03895,0.08712 -0.07546,0.71644 -0.06815,1.197075 l 0.0073,0.435578 0.474667,0.02706 c 0.713219,0.03903 1.129465,0.115654 1.397227,0.255341 l 0.09493,0.04959 -0.06329,0.08259 c -0.08033,0.105143 -0.0998,0.174232 -0.06815,0.249326 0.06087,0.138188 0.20934,0.199763 0.856835,0.357476 0.832492,0.204269 1.239004,0.355967 1.239004,0.464107 0,0.147202 -0.786244,0.389013 -1.811039,0.557239 -0.6621,0.10814 -1.187884,0.166716 -2.336822,0.261347 -0.399208,0.03299 -0.732693,0.06458 -0.739996,0.06911 -0.06816,0.04205 -0.10224,1.010833 -0.05356,1.509495 0.221512,2.225925 1.173281,5.181831 2.020379,6.275274 0.262893,0.336441 0.399206,0.425055 1.022361,0.657863 0.576903,0.214782 0.628019,0.238814 0.647493,0.300399 0.03408,0.115644 -0.0048,0.33794 -0.0852,0.477627 -0.141185,0.249325 -0.146054,0.407039 -0.01704,0.585767 0.18013,0.249336 0.499009,0.468624 2.568072,1.751316 1.046702,0.648851 1.528671,0.962769 1.647947,1.073917 0.09494,0.08862 0.16309,0.234307 0.141183,0.303396 -0.01947,0.06156 -0.13875,0.177239 -0.384603,0.370986 -0.294536,0.232808 -0.355393,0.330435 -0.275063,0.449098 0.05598,0.08108 0.153353,0.138178 0.421114,0.250824 0.321315,0.135181 0.345656,0.162221 0.3773,0.425066 0.04381,0.373994 0.01227,1.034866 -0.05842,1.182057 l -0.03164,0.0676 -0.228813,0.01046 c -1.195188,0.05412 -21.294305,0.05261 -21.676473,-10e-4 -0.06573,-0.0091 -0.133888,-0.02555 -0.150919,-0.03601 -0.07302,-0.04507 -0.109547,-0.225293 -0.121703,-0.600786 -0.0146,-0.407039 0.0146,-0.660872 0.09251,-0.815577 0.05356,-0.108141 0.1071,-0.139687 0.404078,-0.249326 0.219075,-0.07957 0.306706,-0.132173 0.357824,-0.210285 0.09737,-0.141186 0.01947,-0.268851 -0.311576,-0.521185 -0.199605,-0.151698 -0.355393,-0.313908 -0.355393,-0.370986 0,-0.04808 0.1071,-0.174231 0.24342,-0.28388 0.228815,-0.186243 0.669403,-0.479126 1.776959,-1.176041 2.013077,-1.267674 2.275968,-1.450918 2.402547,-1.674713 0.06573,-0.118652 0.05842,-0.288377 -0.02192,-0.453595 -0.0852,-0.172732 -0.116837,-0.29739 -0.116837,-0.461109 v -0.130681 l 0.08763,-0.04356 c 0.04624,-0.02404 0.206908,-0.08712 0.352959,-0.139686 0.72052,-0.25834 0.924992,-0.358975 1.083214,-0.534705 0.508747,-0.561735 1.204926,-2.126799 1.613868,-3.634795 0.109547,-0.407029 0.294538,-1.209087 0.367564,-1.601107 0.175261,-0.944742 0.228813,-2.388146 0.09494,-2.604436 -0.04138,-0.0676 -0.146051,-0.123159 -0.277499,-0.147191 -0.06573,-0.01348 -0.404074,-0.04658 -0.74973,-0.07504 -1.195187,-0.100635 -2.025247,-0.219298 -2.852872,-0.408548 -0.603679,-0.138178 -1.010188,-0.285369 -1.085649,-0.396517 -0.02922,-0.04658 -0.02677,-0.04959 0.04625,-0.08712 0.143618,-0.07514 0.481971,-0.18925 0.88118,-0.29739 0.878743,-0.238813 1.005321,-0.286878 1.10999,-0.41905 0.07302,-0.09315 0.07059,-0.168226 -0.0146,-0.286878 l -0.04868,-0.06609 0.06816,-0.03903 c 0.180129,-0.103633 0.688875,-0.219288 1.112424,-0.253832 0.367563,-0.03008 0.496576,-0.05412 0.58664,-0.114156 0.141184,-0.09315 0.141184,-0.09164 0.124156,-0.759998 -0.0097,-0.336442 -0.02678,-0.654866 -0.04138,-0.708936 -0.04381,-0.156205 -0.09979,-0.20427 -0.331049,-0.27186 -0.109547,-0.03159 -0.223946,-0.05855 -0.258024,-0.05855 -0.155789,0 -0.408945,-0.160711 -0.408945,-0.261347 0,-0.05412 0.09494,-0.165218 0.231248,-0.264345 0.209341,-0.156204 0.253155,-0.261347 0.155788,-0.386015 -0.02922,-0.03752 -0.09737,-0.08561 -0.165525,-0.115644 -0.401642,-0.183245 -0.949334,-0.687912 -1.226832,-1.135501 -0.233683,-0.375493 -0.30184,-0.624819 -0.333484,-1.216602 -0.03408,-0.645852 0,-0.818585 0.248287,-1.290206 0.533089,-1.013831 1.638211,-2.113279 3.624511,-3.6062573 0.715591,-0.5392008 1.321704,-1.0483744 1.433677,-1.207587 0.104676,-0.1441935 0.08275,-0.3064036 -0.056,-0.4340693 -0.04381,-0.04054 -0.155787,-0.1111479 -0.250722,-0.1592124 -0.226379,-0.1111479 -0.365127,-0.2117835 -0.404073,-0.2913847 -0.01946,-0.039031 -0.03164,-0.150199 -0.03164,-0.2913847 0,-0.205768 0.0048,-0.2313092 0.0511,-0.2688514 0.146051,-0.1216601 0.732691,-0.2403225 1.470249,-0.2973903 0.211776,-0.014989 1.139203,0.00302 1.363149,0.028569 z"
     id="path4944"
     inkscape:connector-curvature="0"
     sodipodi:nodetypes="ccccccccccccccscccccccccccccsccccccccccccccccccccccccccsccccsccccccccccccccccccccccsscccccccccccscccc" />
</svg>
