<?xml version="1.0" encoding="UTF-8" standalone="no"?>
<svg
   xmlns:dc="http://purl.org/dc/elements/1.1/"
   xmlns:cc="http://creativecommons.org/ns#"
   xmlns:rdf="http://www.w3.org/1999/02/22-rdf-syntax-ns#"
   xmlns:svg="http://www.w3.org/2000/svg"
   xmlns="http://www.w3.org/2000/svg"
   xmlns:sodipodi="http://sodipodi.sourceforge.net/DTD/sodipodi-0.dtd"
   xmlns:inkscape="http://www.inkscape.org/namespaces/inkscape"
   version="1.1"
   width="45"
   height="45"
   id="svg15"
   sodipodi:docname="king_b.svg"
   inkscape:version="0.92.4 (f8dce91, 2019-08-02)">
  <metadata
     id="metadata21">
    <rdf:RDF>
      <cc:Work
         rdf:about="">
        <dc:format>image/svg+xml</dc:format>
        <dc:type
           rdf:resource="http://purl.org/dc/dcmitype/StillImage" />
      </cc:Work>
    </rdf:RDF>
  </metadata>
  <defs
     id="defs19" />
  <sodipodi:namedview
     pagecolor="#ffffff"
     bordercolor="#666666"
     borderopacity="1"
     objecttolerance="10"
     gridtolerance="10"
     guidetolerance="10"
     inkscape:pageopacity="0"
     inkscape:pageshadow="2"
     inkscape:window-width="1853"
     inkscape:window-height="1018"
     id="namedview17"
     showgrid="false"
     inkscape:zoom="5.2444444"
     inkscape:cx="-14.396186"
     inkscape:cy="22.5"
     inkscape:window-x="67"
     inkscape:window-y="34"
     inkscape:window-maximized="1"
     inkscape:current-layer="g13" />
  <g
     style="fill:none;fill-opacity:1;fill-rule:evenodd;stroke:#000000;stroke-width:1.5;stroke-linecap:round;stroke-linejoin:round;stroke-miterlimit:4;stroke-dasharray:none;stroke-opacity:1"
     id="g13">
    <path
       sodipodi:type="star"
       style="opacity:1;fill:#000000;fill-opacity:1;stroke:#ffffff;stroke-width:10;stroke-miterlimit:4;stroke-dasharray:none;stroke-dashoffset:0;stroke-opacity:0;paint-order:markers stroke fill"
       id="path1686"
       sodipodi:sides="5"
       sodipodi:cx="22.690678"
       sodipodi:cy="3.6228814"
       sodipodi:r1="4.4319811"
       sodipodi:r2="8.8639622"
       sodipodi:arg1="-0.32855317"
       sodipodi:arg2="0.29976536"
       inkscape:flatsided="false"
       inkscape:rounded="0"
       inkscape:randomized="0"
       d="M 26.885593,2.1927967 31.159359,6.2403743 25.347069,7.1705624 22.81826,12.485925 20.137503,7.2455536 14.300847,6.4830509 18.456337,2.314135 17.377895,-3.4724806 22.626886,-0.80864056 27.797028,-3.622463 Z"
       inkscape:transform-center-x="0.39075639"
       inkscape:transform-center-y="-0.68052047"
       transform="matrix(0.27211733,-0.20709418,0.20709418,0.27211733,15.436717,12.259465)" />
    <path
       d="m 22.5,25 c 0,0 4.5,-7.5 3,-10.5 0,0 -1,-2.5 -3,-2.5 -2,0 -3,2.5 -3,2.5 -1.5,3 3,10.5 3,10.5"
       style="fill:#000000;fill-opacity:1;stroke-linecap:butt;stroke-linejoin:miter"
       id="path3"
       inkscape:connector-curvature="0" />
    <path
       d="m 11.5,37 c 5.5,3.5 15.5,3.5 21,0 v -7 c 0,0 9,-4.5 6,-10.5 -4,-6.5 -13.5,-3.5 -16,4 V 27 23.5 C 19,16 9.5,13 6.5,19.5 c -3,6 5,10 5,10 z"
       style="fill:#000000;stroke:#000000"
       id="path5"
       inkscape:connector-curvature="0" />
    <path
       d="m 32,29.5 c 0,0 8.5,-4 6.03,-9.65 C 34.15,14 25,18 22.5,24.5 l 0.01,2.1 -0.01,-2.1 C 20,18 9.906,14 6.997,19.85 c -2.497,5.65 4.853,9 4.853,9"
       style="fill:none;stroke:#ffffff"
       id="path9"
       inkscape:connector-curvature="0" />
    <path
       d="m 11.5,30 c 5.5,-3 15.5,-3 21,0 m -21,3.5 c 5.5,-3 15.5,-3 21,0 m -21,3.5 c 5.5,-3 15.5,-3 21,0"
       style="fill:none;stroke:#ffffff"
       id="path11"
       inkscape:connector-curvature="0" />
  </g>
</svg>
