<?xml version="1.0" encoding="UTF-8" standalone="no"?>
<!-- Generator: Adobe Illustrator 17.1.0, SVG Export Plug-In . SVG Version: 6.00 Build 0)  -->

<svg
   xmlns:dc="http://purl.org/dc/elements/1.1/"
   xmlns:cc="http://creativecommons.org/ns#"
   xmlns:rdf="http://www.w3.org/1999/02/22-rdf-syntax-ns#"
   xmlns:svg="http://www.w3.org/2000/svg"
   xmlns="http://www.w3.org/2000/svg"
   xmlns:sodipodi="http://sodipodi.sourceforge.net/DTD/sodipodi-0.dtd"
   xmlns:inkscape="http://www.inkscape.org/namespaces/inkscape"
   version="1.1"
   id="Capa_1"
   x="0px"
   y="0px"
   viewBox="0 0 45 45"
   xml:space="preserve"
   sodipodi:docname="king_w.svg"
   width="45"
   height="45"
   inkscape:version="0.92.4 (f8dce91, 2019-08-02)"><metadata
   id="metadata39"><rdf:RDF><cc:Work
       rdf:about=""><dc:format>image/svg+xml</dc:format><dc:type
         rdf:resource="http://purl.org/dc/dcmitype/StillImage" /><dc:title /></cc:Work></rdf:RDF></metadata><defs
   id="defs37" /><sodipodi:namedview
   pagecolor="#ffffff"
   bordercolor="#666666"
   borderopacity="1"
   objecttolerance="10"
   gridtolerance="10"
   guidetolerance="10"
   inkscape:pageopacity="0"
   inkscape:pageshadow="2"
   inkscape:window-width="1853"
   inkscape:window-height="1018"
   id="namedview35"
   showgrid="false"
   inkscape:zoom="21.707604"
   inkscape:cx="23.10499"
   inkscape:cy="16.977436"
   inkscape:window-x="67"
   inkscape:window-y="34"
   inkscape:window-maximized="1"
   inkscape:current-layer="Capa_1" />
















<path
   style="opacity:1;fill:#ffffff;fill-opacity:1;stroke:#000000;stroke-width:2.87885523;stroke-miterlimit:4;stroke-dasharray:none;stroke-dashoffset:0;stroke-opacity:1;paint-order:markers stroke fill"
   d="M 21.891869,9.02079 C 20.798899,8.5329339 20.647225,7.0137115 21.617595,6.273574 22.384461,5.6886563 23.563419,6.0116591 23.93854,6.9094509 24.374692,7.953307 23.622208,9.1525192 22.537255,9.1426423 22.328174,9.1407423 22.037751,9.0859058 21.891869,9.02079 Z"
   id="path1062"
   inkscape:connector-curvature="0" /><path
   style="display:inline;opacity:1;fill:#ffffff;fill-opacity:1;stroke:#000000;stroke-width:2.87885523;stroke-miterlimit:4;stroke-dasharray:none;stroke-dashoffset:0;stroke-opacity:1;paint-order:markers stroke fill"
   d="m 11.417546,32.081925 c -0.40893,-0.17737 -0.604692,-0.36484 -0.81856,-0.78389 -0.154671,-0.303058 -0.172828,-0.470504 -0.137399,-1.267122 l 0.04082,-0.917916 -0.349476,-0.280108 C 9.2316418,28.094466 8.0860242,26.213464 7.7476554,24.883636 7.5433484,24.080687 7.4758971,22.560448 7.6081916,21.74036 8.089442,18.757107 10.192491,16.311953 13.030567,15.43592 c 0.744656,-0.229855 2.02329,-0.395634 2.5036,-0.3246 l 0.361694,0.05349 -0.300609,0.991339 c -0.481382,1.587487 -0.660759,2.792571 -0.709616,4.767307 -0.06072,2.454543 0.174781,4.21177 0.826985,6.170507 0.482506,1.449086 0.27157,1.326196 2.276375,1.326196 0.939004,0 1.730064,-0.02278 1.757908,-0.05063 0.02785,-0.02785 -0.162431,-0.49533 -0.422836,-1.038854 -0.528612,-1.103337 -0.836018,-2.081612 -1.046761,-3.331174 -0.540561,-3.205152 -0.0055,-6.763053 1.373173,-9.131047 0.453589,-0.779076 1.295014,-1.637843 1.879781,-1.918523 1.77987,-0.854313 3.699068,0.849816 4.7273,4.197554 1.067274,3.47485 0.700388,7.947218 -0.878305,10.70659 -0.141811,0.247866 -0.231869,0.476635 -0.200131,0.508375 0.03174,0.03173 0.824646,0.0577 1.762013,0.0577 2.012922,0 1.817699,0.1163 2.298647,-1.36938 0.618022,-1.909108 0.842585,-3.432281 0.840981,-5.704233 -0.0014,-2.10341 -0.293105,-3.976937 -0.883079,-5.673395 l -0.174508,-0.501791 0.343966,-0.05811 c 0.721534,-0.121903 2.339417,0.156494 3.363419,0.578759 1.86855,0.770527 3.497987,2.443651 4.238672,4.352314 0.417362,1.075494 0.556557,1.973443 0.502463,3.241387 -0.05276,1.236682 -0.221134,1.934171 -0.720995,2.986736 -0.423885,0.892581 -0.76417,1.368215 -1.583503,2.213334 l -0.706482,0.728718 -0.0096,0.906925 c -0.01199,1.129741 -0.213385,1.585029 -0.841109,1.901572 l -0.39449,0.198929 -10.745562,-0.0035 c -9.368033,-0.003 -10.784895,-0.02052 -11.052378,-0.136539 z"
   id="path1064"
   inkscape:connector-curvature="0" /><path
   style="display:inline;opacity:1;fill:#ffffff;fill-opacity:1;stroke:#000000;stroke-width:2.87885523;stroke-miterlimit:4;stroke-dasharray:none;stroke-dashoffset:0;stroke-opacity:1;paint-order:markers stroke fill"
   d="m 10.961573,38.883526 c -0.173402,-0.208936 -0.173402,-2.593106 0,-2.802042 0.111722,-0.134618 1.024367,-0.146209 11.512696,-0.146209 11.171812,0 11.393118,0.0033 11.482879,0.171014 0.05051,0.09438 0.09152,0.722187 0.09152,1.400907 0,1.079216 -0.01981,1.247819 -0.161684,1.376215 -0.148678,0.134552 -1.072461,0.146323 -11.482879,0.146323 -10.423066,0 -11.33082,-0.0116 -11.442536,-0.146208 z"
   id="path1066"
   inkscape:connector-curvature="0" /><path
   style="opacity:1;fill:#ffffff;fill-opacity:1;stroke:#ffffff;stroke-width:1;stroke-miterlimit:4;stroke-dasharray:none;stroke-dashoffset:0;stroke-opacity:1;paint-order:markers stroke fill"
   d="m 27.548176,26.509269 c 0.322221,-0.953383 0.604144,-2.352322 0.706968,-3.508065 0.07085,-0.796329 0.05888,-2.562524 -0.0225,-3.321339 -0.159052,-1.482993 -0.475654,-2.821122 -0.952617,-4.026264 -0.143874,-0.363527 -0.134349,-0.416805 0.07733,-0.432533 0.128335,-0.0095 0.134119,0.0012 0.379216,0.704352 0.642134,1.842176 0.861798,3.24619 0.861277,5.504984 -4.93e-4,2.140974 -0.134195,3.118073 -0.672911,4.917631 l -0.18962,0.633419 h -0.173363 -0.173363 z"
   id="path832"
   inkscape:connector-curvature="0" /><path
   style="opacity:1;fill:#ffffff;fill-opacity:1;stroke:#ffffff;stroke-width:1;stroke-miterlimit:4;stroke-dasharray:none;stroke-dashoffset:0;stroke-opacity:1;paint-order:markers stroke fill"
   d="m 17.429314,26.500854 c -0.322221,-0.953383 -0.604144,-2.352322 -0.706968,-3.508065 -0.07085,-0.796329 -0.05888,-2.562524 0.0225,-3.321339 0.159052,-1.482993 0.475654,-2.821122 0.952617,-4.026264 0.143874,-0.363527 0.134349,-0.416805 -0.07733,-0.432533 -0.128335,-0.0095 -0.134119,0.0012 -0.379216,0.704352 -0.642134,1.842176 -0.861798,3.24619 -0.861277,5.504984 4.93e-4,2.140974 0.134195,3.118073 0.672911,4.917631 l 0.18962,0.633419 h 0.173363 0.173363 z"
   id="path832-3"
   inkscape:connector-curvature="0" /><path
   style="opacity:1;fill:#ffffff;fill-opacity:1;stroke:#ffffff;stroke-width:0.04606681;stroke-miterlimit:4;stroke-dasharray:none;stroke-dashoffset:0;stroke-opacity:1;paint-order:markers stroke fill"
   d="m 10.396982,34.532253 c 0.01557,-0.111729 0.05168,-0.431174 0.08025,-0.709878 0.02856,-0.278705 0.05695,-0.512186 0.06307,-0.518849 0.0061,-0.0067 0.12565,0.03853 0.26561,0.100427 0.528892,0.233901 0.193018,0.226963 11.852226,0.244845 l 10.917833,0.01674 0.218684,-0.102146 c 0.120275,-0.05618 0.226326,-0.09345 0.235667,-0.08282 0.02454,0.02793 0.220963,1.109955 0.204442,1.126195 -0.0076,0.0075 -0.127873,-0.01046 -0.267225,-0.03989 -0.188444,-0.0398 -3.139532,-0.05351 -11.516702,-0.05351 -10.344714,0 -11.289634,0.0063 -11.585802,0.07664 -0.177357,0.04216 -0.361595,0.09211 -0.409418,0.111009 -0.07955,0.03144 -0.08454,0.01707 -0.05864,-0.168778 z"
   id="path865"
   inkscape:connector-curvature="0" /></svg>